<?xml version="1.0" encoding="utf-8"?>
<!-- Generator: Adobe Illustrator 16.0.0, SVG Export Plug-In . SVG Version: 6.00 Build 0)  -->
<!DOCTYPE svg PUBLIC "-//W3C//DTD SVG 1.1//EN" "http://www.w3.org/Graphics/SVG/1.1/DTD/svg11.dtd">
<svg version="1.1" id="Layer_1" xmlns="http://www.w3.org/2000/svg" xmlns:xlink="http://www.w3.org/1999/xlink" x="0px" y="0px"
	 width="112.438px" height="77.703px" viewBox="0 0 112.438 77.703" enable-background="new 0 0 112.438 77.703"
	 xml:space="preserve">
<g>
	<path fill-rule="evenodd" clip-rule="evenodd" fill="#4F3131" d="M56.717,42.967c0-0.216,0-0.361,0-0.505c0-0.072,0-0.362,0-0.362
		c0.09-0.289-0.091-0.217,0.271-0.289h20.84v1.228c-0.635,0.072-1.902-0.072-2.356,0.072c-0.181,1.083-0.091,5.488,0,7.077
		c0,1.011,0.635,0.939,1.449,1.155v0.507c-0.451,0.072-5.073,0.072-5.526,0l-0.181-0.507c1.54-0.289,1.359-0.721,1.359-2.021
		c0-0.651,0.181-3.972-0.182-4.405c-0.726-0.939-3.896-0.795-4.53-0.074c1.722,0,2.445,0.507,3.081,1.518
		c1.086,1.661,0.724,4.837-2.357,5.416c-0.724,0.145-1.63,0.145-2.264-0.073c-2.99-1.083-3.624-4.838-1.269-6.715
		c3.352-2.744,7.339-1.445,7.521-1.445l0.091-0.433L61.791,43.04c-0.453,0-0.362-0.072-0.453,0.216v6.933
		c0,1.155,0.816,0.939,1.45,1.228v0.506h-5.617c0-0.072,0-0.217,0-0.217c-0.091-0.217,0-0.072-0.183-0.217l-0.544,1.083
		c-0.724,0.072-1.992-0.072-2.626-0.289c-0.635-0.144-1.541-0.505-1.994-0.867c-0.544-0.433-0.634-0.721-0.996-1.516
		c-0.544-0.939-1.088-0.577-2.265-0.649v-2.167c0.634,0.289,0.815,0.867,1.993,0.939c0.814,0.144,2.265,0.144,2.536-0.433
		c-1.54-0.218-2.265-0.29-3.533-1.445c-2.265-2.093,1.54-5.994,5.707-4.188c0.273,0.145,0.636,0.362,0.816,0.434
		c0.181,0.145,0.181,0.216,0.361,0.289L56.717,42.967z M52.73,26.647c-1.178-0.433-1.993-0.505-3.352-0.289
		c-0.997,0.072-2.538,0.649-1.541,1.516c0.726,0.649,2.084,0.505,3.262,0.505c0.725,0,2.99,0.145,3.262,0.434
		c0.543,0.145,1.088,0.361,1.45,0.722h0.091l0.091-0.072l0.543,0.072l0,0c0,0.144,0,0.072,0,0.144
		c0.09,0.217,0.271,0.145,0.271,0.145l0.091,0.072l-0.091-0.072c0.636-0.289,0.364,0.144,0.455-0.433l0.091-0.216
		c0,0.289,0.181,0.145,0.09,0.433c-0.271-0.145,0-0.145,0.091-0.217c0.271-0.144,0.09-0.072,0.452-0.072l-0.09-0.505v0.072
		c0,0,0,0,0.09,0.072l0.182,0.216c0-0.361-0.182-0.939,0.181-1.228c0.181,0.216,0.091,0.361,0.091,0.361
		c-0.091,0.867,0.09,0.434,0.09,0.867c0,0.577-0.09,0-0.271,0.433c-0.09,0.216,0.091,0.289,0.091,0.578l0.091-0.073h-0.091V29.68
		l0.271,0.072c0,0.072,0,0.072,0,0.072h0.183l0,0c0,0,0,0,0.091,0l-0.091-0.505c-0.183-1.011,0-2.023,0.543-2.816
		c-0.182-0.361-0.271-0.072-0.271-0.651c0-0.144-0.092-0.144,0-0.504l-0.092,0.289c-0.09,0-0.09,0-0.09,0c0,0.072,0,0.072,0,0.072
		c-0.273,0.144,0.271,0-0.182,0.072c-0.092,0-0.183,0-0.272,0c-0.091-0.217-0.182,0.072,0-0.289c0.09-0.217-0.091,0,0.181-0.144
		c0,0,0,0,0.092,0l0.271-0.289c0,0.072,0.272,0,0.092,0.216c0.543-0.433,0,0.217,0-0.144v-0.072l0,0l-0.092-0.145
		c-0.09,0.433,0.092,0.072-0.454,0.289c-0.181,0.072-0.271,0.145-0.452,0.145l0.181,0.504c-0.271-0.144-0.361-0.144-0.634-0.144
		l0.092-0.072c0.271-0.289,0.181-0.505,0.271-0.577c-0.09-0.073,0.091-0.073-0.09,0c-0.362,0.072,0,0.144-0.634,0.216
		c-0.273,0-0.817,0-1.088,0l-0.091,1.589c-0.181,0.216-0.09,0.144-0.906,0.144C52.912,27.008,53.999,27.152,52.73,26.647
		L52.73,26.647z M66.684,49.9c0.091,0.434,0.361,0.723,0.906,0.723c0.182-0.072,0.362-0.145,0.453-0.289
		c0.181-0.146,0.181-0.146,0.181-0.362c0.361-0.36,0.453-1.66,0.453-2.237c-0.092-2.312-2.084-2.095-2.266-0.145
		c0,0.433,0,0.866,0,1.299C66.411,49.178,66.502,49.683,66.684,49.9L66.684,49.9z M29.897,27.586
		c-1.357,0.505-1.901,1.516-2.264,1.805c0,0.505-1.722,2.095,0.635,4.693c1.629,1.806,4.258,1.156,5.889,1.083l-1.631,1.517
		c-0.182,0.217-0.362,0.506-0.725,0.506c-1.087,0.217-2.99-0.072-3.987-0.36c-3.624-1.156-5.979-5.416-2.627-8.522
		c0.181-0.145,0.271-0.217,0.362-0.361l0.181-0.145c0.182-0.144,0.091-0.072,0.271-0.144c0.182-0.216,0.362-0.29,0.726-0.579
		c0.906-0.505,2.628-1.082,2.718-1.155c1.088-0.145,1.812-0.433,3.081-0.433c1.269-0.072,2.083,0.072,3.262,0.289l1.088,0.218
		v-0.146l-0.454-2.237c-0.725,0-3.533,0.505-4.348,0.649c-0.907,0.145-3.806,0.795-4.351,0.795
		c-0.181,0.072-5.073,1.155-6.069,1.444c-0.635,0.145-1.45,0.361-2.085,0.433l-0.453-1.3c0.724-0.361,6.976-1.805,8.155-1.95
		c0.997-0.434,13.952-2.383,16.217-2.311c0,0.505,0.183,0.867,0.092,1.372l-3.443,0.361c0,0.65,0.362,2.528,0.544,3.322
		c0.091,1.083,0.271,2.166,0.453,3.249c0.271,1.083,0.452,2.239,0.543,3.323c0.272,1.949,0.997,1.661,2.266,1.949v0.505l-4.53,0.506
		l-2.174,0.289l-0.091-0.505c0.543-0.29,0.995-0.434,1.269-1.083c0.271-0.65-0.635-4.623-1.088-5.272
		C36.24,27.803,32.889,26.359,29.897,27.586L29.897,27.586z M33.069,40.295v-1.732c0.726-0.579,3.171-0.723,4.439-0.579
		c3.443,0.434,5.437,2.6,6.706,2.888c0.724,0.146,1.721,0.074,2.264-0.145c0.636-0.288,0.906-0.649,1.541-0.938
		c0.09,0.145,0.271-0.072-0.091,0.577c-0.453,1.011-1.088,1.3-1.179,1.444c0.545,0,1.27-0.072,1.813,0.072v1.156h-2.356
		c-0.181,0.65-0.091,5.995-0.091,7.149c0.091,1.155,1.179,1.011,1.541,1.228v0.435c-1.088,0.072-2.175,0-3.171,0
		c-2.175,0-2.72,0.216-2.446-0.507c1.448-0.505,1.268-0.433,1.268-2.021c0-1.083,0-2.167,0-3.178c0-0.649,0.181-1.661-1.541-1.805
		c-0.905-0.145-2.536-0.073-3.26,0.504c1.812,0.074,2.536,0.507,3.17,1.518c1.088,1.805,0.726,4.621-2.265,5.416
		c-4.348,1.083-6.886-4.261-3.624-6.788c1.359-1.083,3.081-1.806,5.346-1.806c0.997,0,1.54,0.289,2.174,0.36v-0.433
		c-1.358-0.145-8.243,0-8.879-0.072c-0.362-0.072-0.271-0.577-0.271-0.867c0.091-0.36,0-0.144,0.181-0.289
		c0.271-0.144,6.886,0,7.974-0.072l-0.997-0.722C35.517,36.612,33.976,40.224,33.069,40.295L33.069,40.295z M49.288,37.624
		c-0.362-0.867,0.452-1.588,1.179-1.805c0.995-0.217,1.992,0.36,2.173,0.938C53.274,38.49,50.104,39.428,49.288,37.624
		L49.288,37.624z M89.154,24.915c0.452,0.072,2.354,0.577,2.626,0.722l-0.543,1.3l-3.171-0.794
		c-0.271,0.433-1.993,5.417-2.265,6.282c-0.363,1.011-0.726,2.094-1.088,3.106c-0.271,0.793-0.816,2.237,0.905,2.598l-0.091,0.506
		c-0.634,0-2.536-0.506-3.171-0.723c-1.086-0.216-2.174-0.505-3.169-0.649c0.089-0.939,0.271-0.217,1.356-0.867
		c0.545-0.289,0.727-0.649,0.906-1.3l2.537-8.16c0.091-0.361,0.454-1.228,0.454-1.588c-2.629-0.577-9.333-1.805-12.051-2.021
		c-0.182,0.36-0.272,1.082-0.272,1.444c0.635-0.074,0.906-0.146,1.721-0.146c1.632,0.072,3.172,0.65,4.26,1.373
		c3.443,2.166,2.719,6.715-1.179,8.232c-1.449,0.578-3.442,0.649-4.893,0c-0.452-0.146-0.724-0.362-1.177-0.723l0.271-1.444
		c0.271,0.145,0.634,0.578,1.087,0.939c0.363,0.289,1.088,0.577,1.722,0.505c1.268,0,1.994-1.011,2.356-1.805
		c0.452-1.011,0.724-2.023,0.452-3.178c-0.724-3.538-4.076-3.105-4.893-1.805c-0.362,0.577-1.086,5.417-1.27,6.428
		c-0.18,1.083-0.09,2.093,1.541,2.383l-0.091,0.433l-6.795-0.723v-0.433c0.726-0.217,1.812-0.361,1.992-1.517
		c-0.361,0-0.904,0.289-1.448,0.289c-1.359,0.145-2.809-0.072-3.986-0.577c-0.362-0.144-0.362-0.144-0.544-0.362
		c-0.815-0.072-2.354-2.021-2.445-3.321l0.091,0.505c-0.091,0-0.091,0-0.091,0l0,0h-0.183c0,0,0,0,0-0.072l-0.271-0.072v0.433h0.091
		l-0.091,0.073c0-0.29-0.181-0.362-0.091-0.578c0.182-0.433,0.271,0.144,0.271-0.433c0-0.433-0.181,0-0.09-0.867
		c0,0,0.09-0.145-0.091-0.361c-0.362,0.289-0.181,0.867-0.181,1.228l-0.182-0.216c-0.09-0.072-0.09-0.072-0.09-0.072v-0.072
		l0.09,0.505c-0.362,0-0.182-0.072-0.452,0.072c-0.091,0.072-0.362,0.072-0.091,0.217c0.091-0.289-0.09-0.145-0.09-0.433
		l-0.091,0.216c-0.091,0.577,0.181,0.145-0.455,0.433l0.091,0.072l-0.091-0.072c0,0-0.181,0.072-0.271-0.145c0-0.072,0,0,0-0.144
		l0,0l-0.543-0.072l-0.091,0.072c0.634,0.433,1.178,1.3,0.904,2.383c-0.09,0.433-0.362,0.794-0.633,1.155
		c-0.271,0.217-0.815,0.722-1.178,0.794l-0.544,0.29c-1.54,0.649-3.715,1.082-5.526,0.649c-1.722-0.361-3.533-1.733-3.896-2.816
		c0.272-0.289,1.631-1.589,1.904-1.661c0.09,1.444,0.271,2.744,2.535,3.465c1.359,0.362,2.9-0.072,3.806-0.793
		c0.362-0.29,0.454-0.651,0.725-0.867l0.091-0.289c0.091-0.939-0.091-1.444-0.815-1.878c-0.544-0.433-1.631-0.721-2.627-0.577
		c-4.893,0.795-6.795-1.372-5.437-2.816c0.905-0.939,3.443-1.3,4.982-1.372c1.54-0.072,1.722,0.072,3.081,0.289l-0.091-0.649
		c-1.359-0.072-3.262,0.072-4.712,0.144c-1.087,0.073-3.624,0.361-4.529,0.289c-0.09-0.36-0.181-0.867-0.09-1.155
		c4.619-0.361,9.876-0.577,14.586-0.433l-0.091,1.156h-2.174l-0.091,2.021l0.091-1.589c0.271,0,0.814,0,1.088,0
		c0.634-0.072,0.271-0.144,0.634-0.216c0.181-0.073,0-0.073,0.09,0c-0.09,0.072,0,0.289-0.271,0.577l-0.092,0.072
		c0.272,0,0.362,0,0.634,0.144l-0.181-0.504c0.181,0,0.271-0.073,0.452-0.145c0.546-0.217,0.364,0.145,0.454-0.289l0.092,0.145l0,0
		v0.072c0,0.361,0.543-0.289,0,0.144c0.181-0.216-0.092-0.144-0.092-0.216l-0.271,0.289c-0.092,0-0.092,0-0.092,0
		c-0.271,0.144-0.091-0.073-0.181,0.144c-0.182,0.36-0.091,0.072,0,0.289c0.09,0,0.181,0,0.272,0
		c0.452-0.072-0.092,0.072,0.182-0.072c0,0,0,0,0-0.072c0,0,0,0,0.09,0l0.092-0.289c-0.092,0.36,0,0.36,0,0.504
		c0,0.579,0.089,0.29,0.271,0.651c0.544-1.083,1.993-2.095,3.533-2.455c0.998-0.289,1.902-0.361,2.991-0.289
		c0.905,0.072,2.265,0.577,2.626,0.577c0.09-0.577,0.09-0.938,0.09-1.444c-3.261-0.289-6.613-0.505-10.057-0.577v-1.372
		c3.353-0.145,12.957,0.793,16.219,1.228c3.533,0.505,7.61,1.228,11.055,1.949C86.525,24.264,88.699,24.697,89.154,24.915
		L89.154,24.915z M102.29,30.619c0-3.828-0.362-8.667-4.166-11.121c-6.887-4.406-21.836-3.034-29.9-4.334
		c-5.979-0.938-11.507-4.405-11.96-4.549c-2.265,1.228-2.265,1.3-4.983,2.455c-7.065,3.033-12.141,2.528-20.204,2.961
		c-5.889,0.361-14.405,0.939-18.121,4.623c-1.177,1.082-1.902,2.816-2.264,4.549c-1.45,6.5,0.452,16.753,2.719,22.531
		c1.086,2.6,2.988,6.788,4.802,8.954c5.073,6.211,14.767,2.672,25.55,5.127c2.445,0.577,3.262,1.155,5.254,2.167
		c1.632,0.866,3.173,1.661,4.894,2.455c2.808,1.372,1.993,1.156,3.714,0.29c1.722-0.867,4.168-2.383,5.979-3.25
		c1.904-1.011,2.537-1.588,5.438-2.021c2.354-0.361,4.711-0.506,7.248-0.65c4.621-0.217,10.419,0.216,14.224-1.3
		c3.442-1.372,4.894-4.261,6.614-7.51C100.116,46.145,102.29,37.696,102.29,30.619L102.29,30.619z"/>
	<path fill-rule="evenodd" clip-rule="evenodd" fill="#F15A2B" d="M56.355,4.623c0.451,0.144,2.899,1.588,3.442,1.949
		c2.356,1.373,5.073,2.528,7.792,3.25c3.896,1.154,11.507,0.938,16.127,1.299c3.715,0.362,6.886,0.579,10.237,1.372
		c6.344,1.518,10.511,3.972,12.595,8.883c3.624,8.737,0.272,23.831-3.987,32.28c-2.354,4.693-4.8,8.737-10.328,10.688
		c-5.979,2.021-14.315,1.083-21.291,1.877c-2.266,0.29-2.538,0.506-4.078,1.444c-3.172,1.734-6.614,3.539-9.784,5.271
		c-0.906,0.507-0.454,0.435-2.719-0.577c-3.352-1.444-6.07-2.96-9.242-4.478c-1.631-0.866-1.812-1.083-4.167-1.444
		c-3.533-0.505-7.247-0.649-10.964-0.722c-3.442-0.072-7.248-0.433-9.965-1.444c-5.799-2.167-8.064-6.283-10.238-10.76
		C7.61,49.106,5.798,43.473,5.074,38.346c-0.816-5.778-1.269-11.843,0.905-17.115c3.353-8.016,13.5-9.388,22.923-10.111
		c4.803-0.361,11.778-0.145,16.127-1.299c1.358-0.362,2.899-0.939,4.077-1.445c2.537-1.082,3.353-1.588,5.527-2.816
		C54.996,5.344,55.993,4.767,56.355,4.623L56.355,4.623z M0,28.02v4.477c0.09,0.145,0.452,4.55,0.543,5.127
		c0.907,7.005,3.715,15.959,7.792,22.025c3.805,5.634,8.155,8.594,16.398,9.533c4.983,0.649,10.964,0.145,16.219,1.154
		c0.997,0.217,1.541,0.579,2.265,1.012c3.262,1.661,5.528,2.744,8.88,4.26c0.815,0.361,4.167,1.878,4.439,2.095h0.181
		c0.271-0.216,1.631-0.939,2.085-1.155c0.724-0.361,1.357-0.795,2.084-1.156l8.335-4.549c0.905-0.507,1.086-0.723,2.445-0.795
		c10.42-0.939,19.117,0.505,26.366-4.188c5.074-3.249,8.246-9.244,10.238-14.299c1.087-2.744,2.084-5.993,2.717-9.026
		c0.364-1.588,0.726-3.25,0.907-4.839c0.091-0.866,0.271-1.733,0.362-2.528c0-0.505,0.091-2.383,0.181-2.672V28.02
		c-0.09-0.145-0.452-3.467-0.634-4.116c-0.271-1.3-0.636-2.456-1.088-3.611s-0.995-2.238-1.722-3.249
		c-0.724-1.083-1.358-1.805-2.264-2.672c-5.526-5.561-16.762-6.86-25.188-7.149c-3.353-0.146-7.43-0.218-10.601-0.578
		c-2.628-0.361-6.162-1.805-7.974-2.816l-4.893-2.888C57.623,0.723,56.897,0.289,56.444,0h-0.089
		c-0.362,0.289-1.179,0.723-1.632,0.939c-3.714,2.166-8.336,4.983-13.047,5.632c-1.631,0.217-3.534,0.289-5.255,0.361
		c-5.889,0.29-9.604,0.362-15.583,1.228c-9.695,1.3-16.4,5.199-19.117,12.132c-0.816,2.022-1.359,4.479-1.54,6.716L0,28.02z"/>
	<path fill-rule="evenodd" clip-rule="evenodd" fill="#4F3131" d="M7.338,30.475c0-4.188,0.452-9.027,4.168-12.132
		c4.8-4.116,15.493-4.622,22.831-4.911c2.628-0.145,6.523-0.217,8.97-0.65c3.626-0.65,7.067-1.95,10.057-3.539l2.81-1.516
		c0.362-0.145,0.543,0.072,0.814,0.216c3.716,2.167,7.249,3.972,12.052,4.838c2.536,0.433,6.251,0.505,8.97,0.577
		c2.989,0.145,5.979,0.289,8.878,0.577c5.617,0.579,10.964,1.879,14.043,4.334c1.631,1.372,2.537,2.816,3.262,5.127
		c2.629,7.798-0.452,21.446-3.714,28.235c-3.625,7.438-6.07,10.978-16.399,11.482c-3.353,0.144-14.405,0.144-16.854,1.372
		l-9.149,4.983c-0.361,0.145-1.54,0.938-1.902,0.866l-11.508-5.632c-4.257-1.444-11.868-1.372-16.49-1.588
		c-7.88-0.433-11.233-2.456-14.404-8.16C9.603,47.59,7.338,38.707,7.338,30.475L7.338,30.475z M56.355,4.623
		c-0.362,0.144-1.359,0.722-1.722,0.938c-2.175,1.228-2.99,1.734-5.527,2.816c-1.178,0.506-2.719,1.083-4.077,1.445
		c-4.349,1.154-11.324,0.938-16.127,1.299c-9.423,0.723-19.571,2.095-22.923,10.111c-2.174,5.271-1.721,11.337-0.905,17.115
		c0.724,5.126,2.536,10.76,4.711,15.165c2.174,4.477,4.439,8.593,10.238,10.76c2.717,1.012,6.522,1.373,9.965,1.444
		c3.717,0.072,7.431,0.217,10.964,0.722c2.355,0.362,2.536,0.579,4.167,1.444c3.172,1.518,5.891,3.034,9.242,4.478
		c2.265,1.012,1.813,1.084,2.719,0.577c3.17-1.732,6.612-3.537,9.784-5.271c1.54-0.938,1.813-1.154,4.078-1.444
		c6.976-0.794,15.312,0.144,21.291-1.877c5.528-1.951,7.974-5.995,10.328-10.688c4.26-8.449,7.611-23.542,3.987-32.28
		c-2.084-4.911-6.251-7.365-12.595-8.883c-3.352-0.793-6.522-1.01-10.237-1.372c-4.62-0.361-12.231-0.145-16.127-1.299
		c-2.719-0.723-5.436-1.878-7.792-3.25C59.255,6.211,56.807,4.767,56.355,4.623L56.355,4.623z"/>
	<path fill-rule="evenodd" clip-rule="evenodd" fill="#8B5C5B" d="M102.29,30.619c0,7.077-2.174,15.525-5.164,21.375
		c-1.721,3.249-3.172,6.138-6.614,7.51c-3.805,1.516-9.603,1.083-14.224,1.3c-2.537,0.144-4.894,0.29-7.248,0.65
		c-2.9,0.433-3.533,1.01-5.438,2.021c-1.812,0.867-4.258,2.383-5.979,3.25c-1.721,0.866-0.906,1.082-3.714-0.29
		c-1.721-0.793-3.262-1.589-4.894-2.455c-1.992-1.011-2.809-1.589-5.254-2.167c-10.783-2.456-20.477,1.083-25.55-5.127
		c-1.814-2.166-3.716-6.354-4.802-8.954c-2.267-5.778-4.169-16.032-2.719-22.531c0.362-1.733,1.087-3.467,2.264-4.549
		c3.716-3.683,12.232-4.262,18.121-4.623c8.063-0.433,13.139,0.072,20.204-2.961c2.719-1.155,2.719-1.228,4.983-2.455
		c0.453,0.144,5.98,3.611,11.96,4.549c8.064,1.3,23.014-0.072,29.9,4.334C101.928,21.953,102.29,26.792,102.29,30.619L102.29,30.619
		z M7.338,30.475c0,8.232,2.265,17.115,6.433,24.48c3.171,5.705,6.524,7.727,14.404,8.16c4.622,0.217,12.233,0.144,16.49,1.588
		l11.508,5.632c0.362,0.072,1.541-0.721,1.902-0.866l9.149-4.983c2.448-1.228,13.501-1.228,16.854-1.372
		c10.329-0.505,12.774-4.044,16.399-11.482c3.262-6.789,6.343-20.437,3.714-28.235c-0.725-2.311-1.631-3.755-3.262-5.127
		c-3.079-2.456-8.426-3.756-14.043-4.334c-2.899-0.288-5.889-0.433-8.878-0.577c-2.719-0.072-6.434-0.144-8.97-0.577
		c-4.803-0.867-8.336-2.672-12.052-4.838c-0.271-0.145-0.452-0.361-0.814-0.216l-2.81,1.516c-2.989,1.588-6.431,2.888-10.057,3.539
		c-2.446,0.433-6.342,0.505-8.97,0.65C27,13.721,16.307,14.227,11.507,18.343C7.791,21.448,7.338,26.286,7.338,30.475L7.338,30.475z
		"/>
	<path fill-rule="evenodd" clip-rule="evenodd" fill="#FBEE1B" d="M59.345,26.503c-0.543,0.793-0.726,1.805-0.543,2.816
		c0.091,1.3,1.63,3.249,2.445,3.321c0.544-0.145,0.091,0,0.182-0.072v-0.072c0,0,0,0,0.09,0c0-0.072,0-0.072,0-0.072
		c0.272-0.217,0.272-0.217,0.543-0.145c-0.09-0.289-0.09-0.217,0-0.577c0-0.434,0-0.362,0.183-0.579c0.091,0.29,0.091,0.072,0,0.435
		v0.144c0.182,0.216-0.09,0,0.091,0.072l0.182-0.36c0-0.29-0.182-0.651-0.272-1.012c-0.453-2.527,1.268-5.922,3.986-5.416
		c2.446,0.361,1.813,2.31,1.631,3.322c-0.09,0.939-0.09,2.311-0.725,3.106c-0.272,0.36-0.453,0.433-0.726,0.649l0.091,0.073
		c0.091,0.072-0.091,0.216,0.091,0c0-0.073,0-0.073,0-0.073l0.544,0.217c0.453,0.216,0.272,0.433,0.272,0.939l0.09,0.145
		c-0.362,0.072-0.273,0-0.273-0.072c-0.181,1.156-1.267,1.3-1.992,1.517v0.433l6.795,0.723l0.091-0.433
		c-1.631-0.29-1.721-1.3-1.541-2.383c0.184-1.011,0.907-5.851,1.27-6.428c0.816-1.3,4.169-1.733,4.893,1.805
		c0.271,1.155,0,2.167-0.452,3.178c-0.362,0.793-1.089,1.805-2.356,1.805c-0.634,0.072-1.358-0.216-1.722-0.505
		c-0.453-0.362-0.815-0.795-1.087-0.939l-0.271,1.444c0.453,0.361,0.725,0.577,1.177,0.723c1.45,0.649,3.443,0.578,4.893,0
		c3.897-1.517,4.622-6.066,1.179-8.232c-1.088-0.723-2.628-1.301-4.26-1.373c-0.814,0-1.086,0.072-1.721,0.146
		c0-0.362,0.091-1.084,0.272-1.444c2.718,0.216,9.422,1.444,12.051,2.021c0,0.36-0.363,1.228-0.454,1.588l-2.537,8.16
		c-0.18,0.651-0.361,1.012-0.906,1.3c-1.086,0.65-1.268-0.072-1.356,0.867c0.995,0.144,2.083,0.433,3.169,0.649
		c0.635,0.216,2.537,0.723,3.171,0.723l0.091-0.506c-1.722-0.361-1.177-1.805-0.905-2.598c0.362-1.012,0.725-2.095,1.088-3.106
		c0.271-0.866,1.993-5.849,2.265-6.282c0.362-0.29,0.181,0.217,0.362-0.217c0.452,0,0.271,0.073,0.543,0.146
		c0,0-0.091,0.072,0.183,0c0.181,0,0.181-0.072,0.271-0.072l-0.454-0.29c-0.091-0.072-0.181-0.216-0.362-0.216
		c0.09-0.361-0.091,0,0.09-0.144l0.455-0.433c-0.455-0.218-2.629-0.651-3.353-0.795c-3.444-0.722-7.521-1.444-11.055-1.949
		c-3.262-0.435-12.866-1.372-16.219-1.228v1.372c3.443,0.072,6.796,0.289,10.057,0.577c0,0.506,0,0.867-0.09,1.444
		c-0.361,0-1.721-0.505-2.626-0.577c-1.089-0.072-1.993,0-2.991,0.289C61.338,24.408,59.889,25.419,59.345,26.503L59.345,26.503z"/>
	<path fill-rule="evenodd" clip-rule="evenodd" fill="#FBEE1B" d="M27.271,23.687c0.181,0.217,0,0.072,0.362,0.217l0.452,0.216
		l-1.268,0.289c0,0-0.272,0.072-0.363,0.072l0.363,0.579c0.271-0.362,0.182-0.217,0.725-0.289c0,0,0,0,0.091,0
		c0-0.074,0.09-0.074,0.09-0.074c0.272-0.072,0.182-0.072,0.452-0.072c-0.361,0.506-0.452,0.146-0.814,0.29l0.362,0.145
		c0.545,0,3.443-0.651,4.351-0.795c0.814-0.144,3.623-0.649,4.348-0.649l0.454,2.237c0.181,0.146,0.181,0,0.181,0.29
		c-0.091,0.361-0.454,0.144-0.726,0.433c0.454,0,0.362,0,0.545,0.072l-0.364,0.36c-0.09,0.217-0.09,0.217-0.362,0.361
		c-0.452-0.216-0.09-0.144-0.452-0.289c-0.181-0.072-0.452-0.072-0.633-0.072c-0.183,0.289,0,0.217-0.183,0.217l0.635,0.144l0,0
		c0.452,0.146,0.271,0,0.543,0.074l0.271,0.072c-0.182,0.145,0,0.072-0.182,0.072c-0.181,0.072-0.181,0.072-0.361,0.072
		l-1.359-0.506c0.181-0.216,0.181-0.145,0.636-0.289c0.452-0.145,0.361-0.072,0.814,0c-0.182-0.505-0.091-0.145-0.362-0.216
		c-0.362-0.072-0.271,0-0.452-0.217l0.181-0.072c0.271,0,0.09,0.072,0.452,0c0,0,0,0,0.091,0c-0.634,0-0.362,0-0.543-0.217
		l0.452-0.072c-0.09-0.362-0.09-0.072,0.091-0.29c-1.179-0.217-1.993-0.361-3.262-0.289c-1.27,0-1.993,0.289-3.081,0.433
		l0.181,0.217l-0.09,0.072l-0.091,0.145c0,0.577,1.179,0.433,1.54,0.36c-0.271,0.289,0.453,0.289-0.905,0.217
		c0,0.072-0.092,0.072,0.182,0.072l0.091-0.072c0.452-0.072,0.362,0,0.452,0.072c-0.09,0.145,0,0.072-0.271,0.145
		c-0.271,0.144-0.453,0-0.726-0.145c-0.091,0.145-0.091,0.072-0.091,0.217l0.181,0.362c2.991-1.228,6.343,0.216,7.431,1.805
		c0.453,0.649,1.359,4.622,1.088,5.272c-0.273,0.649-0.726,0.793-1.269,1.083l0.091,0.505l2.174-0.289l4.53-0.506v-0.505
		c-1.269-0.289-1.993,0-2.266-1.949c-0.091-1.083-0.271-2.239-0.543-3.323c-0.182-1.083-0.362-2.166-0.453-3.249
		c-0.182-0.794-0.544-2.672-0.544-3.322l3.443-0.361c0.091-0.505-0.092-0.867-0.092-1.372
		C41.224,21.303,28.269,23.252,27.271,23.687L27.271,23.687z"/>
	<path fill-rule="evenodd" clip-rule="evenodd" fill="#EFE9B6" d="M36.331,51.128c0-0.289,0-0.073,0.091-0.145l0.09-0.145
		c0.273-0.144,0.091,0.145,0.182-0.216V50.55v-0.072l0,0v-0.506l0.183,0.435c0,0.072,0.09,0.072,0.09,0.072v0.072
		c0.272-0.072,0,0.216,0.091-0.072l0.091-0.072c0-0.146,0.091-0.072-0.091-0.362c-0.181-0.216-0.271-0.361-0.363-0.721l0.272,0.216
		c-0.09-0.867-0.272-1.661,0.091-2.527c0.182-0.649,0.725-1.517,1.813-0.939c0.633,0.29,0.724,1.228,0.724,2.022
		c0,0.939-0.181,1.517-0.543,2.312c0.452-0.29-0.362,0.216,0.543,0.433c-0.091-0.361-0.271-0.433-0.091-0.578
		c0.272-0.145,0.544,0.073,0.635,0.146c-0.635,0.072-0.272-0.146-0.635,0.144c0.182,0.072-0.181,0,0.182,0.072
		c0.271,0.072,0.362-0.072,0.545-0.072c0.09-0.072-0.092-0.144,0.361,0l-0.091,0.145c-0.09,0-0.09,0-0.09,0.072l-0.545,0.217
		c0,0,0,0.072,0.272,0.072c0.362-0.072,0,0.217,0.272-0.144v0.217c1.449-0.578,1.812-2.528,1.268-4.044
		c-0.181-0.721-0.634-1.3-1.268-1.661c-1.088-0.579-1.45-0.289-2.719-0.289c1.179-1.372,5.798-1.662,5.89,0.361
		c0,1.156,0,2.383,0,3.611c0,0.433,0.091,1.372-0.092,1.661c-0.543,0.722-1.086,0.505-1.268,0.866h0.091l0.182,0.072
		c0.091,0,4.53,0.073,4.892-0.072c-0.181-0.217-0.815-0.289-1.087-0.505c-0.271-0.145-0.362-0.433-0.362-0.867
		c-0.091-2.166,0-5.126,0-7.365h2.355v-0.867c-0.543,0-1.268,0-1.813,0c-0.634,0-1.992,0.506-3.171,0.144
		c-0.634-0.216-0.814-0.144-1.541-0.144c-2.354,0-5.073-0.145-7.338,0v0.867h9.151v0.939c-0.815-0.072-1.178-0.362-2.084-0.434
		c-1.541-0.072-2.989,0.29-4.258,0.867C32.979,46.362,34.609,50.261,36.331,51.128L36.331,51.128z"/>
	<path fill-rule="evenodd" clip-rule="evenodd" fill="#FBEE22" d="M54.09,31.847c0.182-0.361,0,0.072,0.182-0.144l0.09-0.144
		c0.182-0.29,0.182-0.362,0.182-0.651c0-0.072,0-0.216,0-0.216l-0.182-0.361l0.543-0.072c0.092-0.506,0,0.289,0-0.218
		c-0.09-0.289-0.271,0.146,0-0.144c0.092-0.145,0.181,0,0.454-0.361c0.272,0.361,0,0.144,0.453,0.289
		c-0.091-0.361-0.362-0.216,0-0.289c-0.362-0.361-0.907-0.577-1.45-0.722c-0.271-0.29-2.537-0.434-3.262-0.434
		c-1.178,0-2.536,0.145-3.262-0.505c-0.997-0.867,0.544-1.444,1.541-1.516c1.358-0.217,2.174-0.145,3.352,0.289
		c1.269,0.505,0.182,0.36,2.446,0.36c0.816,0,0.726,0.072,0.906-0.144l0.091-2.021h2.174l0.091-1.156
		c-4.71-0.144-9.967,0.072-14.586,0.433c-0.091,0.289,0,0.795,0.09,1.155c0.905,0.073,3.442-0.216,4.529-0.289
		c1.45-0.072,3.353-0.216,4.712-0.144l0.091,0.649c-1.359-0.217-1.541-0.361-3.081-0.289c-1.539,0.072-4.077,0.433-4.982,1.372
		c-1.358,1.444,0.544,3.611,5.437,2.816c0.996-0.144,2.083,0.145,2.627,0.577C53.999,30.402,54.181,30.908,54.09,31.847
		L54.09,31.847z"/>
	<path fill-rule="evenodd" clip-rule="evenodd" fill="#EFE9B6" d="M52.55,42.535c0.543-0.145,1.269,0.072,1.631,0.289
		c1.54,0.867,1.178,3.177-0.091,3.611c-1.813,0.649-2.99-0.939-2.446-2.816C51.733,43.04,52.007,42.751,52.55,42.535L52.55,42.535z
		 M53.545,47.372c-0.361,0.867-1.086,0.867-2.354,0.867c-0.634,0-0.906,0-1.45-0.145c-0.452-0.216-0.543-0.36-0.995-0.578v1.518
		c1.358,0.072,1.63-0.218,2.174,0.649c0.361,0.578,0.452,1.083,0.996,1.517c0.815,0.651,2.628,1.3,4.349,1.156
		c0.181-0.289,0.816-1.517,0.816-1.661c-0.725,0.577-3.081,0.505-3.987,0c-0.453-0.217-0.996-0.795-0.815-1.444
		c0.092-0.362,0.635-0.145,1.994-0.506c1.178-0.361,2.354-1.228,2.809-1.949c1.177-1.732-0.273-4.767-3.535-5.055
		c-3.533-0.216-5.436,2.527-3.714,4.405C50.647,46.939,51.644,47.372,53.545,47.372L53.545,47.372z"/>
	<path fill-rule="evenodd" clip-rule="evenodd" fill="#FBEE1B" d="M32.526,36.685l1.631-1.517c-1.631,0.072-4.26,0.723-5.889-1.083
		c-2.356-2.599-0.635-4.188-0.635-4.693l-0.182-0.433l0,0l0.453-0.072c-0.271-0.29-0.182-0.218-0.271-0.434h-0.272l0.091-0.505
		l-0.271-0.145c0-0.072-0.091-0.072-0.091-0.072s0,0,0-0.072c-0.181,0.505,0,0.072-0.362,0.361c-0.272,0.289,0,0.072-0.272,0.36
		c-0.453-0.144,0,0.072-0.271-0.289c0,0,0,0,0-0.072c-0.453-0.577,0.454,0-0.182-0.361c-0.181,0.072-0.09,0-0.271,0.144
		l-0.181,0.145c-0.091,0.144-0.182,0.216-0.362,0.361c-3.352,3.106-0.997,7.366,2.627,8.522c0.997,0.289,2.9,0.577,3.987,0.36
		C32.164,37.19,32.345,36.902,32.526,36.685L32.526,36.685z"/>
	<path fill-rule="evenodd" clip-rule="evenodd" fill="#C9292A" d="M53.545,47.372c-1.901,0-2.897-0.433-3.714-1.228
		c-1.722-1.877,0.181-4.621,3.714-4.405c3.262,0.289,4.712,3.323,3.535,5.055c-0.454,0.722-1.631,1.588-2.809,1.949
		c-1.359,0.362-1.902,0.145-1.994,0.506c-0.181,0.649,0.362,1.228,0.815,1.444c0.906,0.505,3.263,0.577,3.987,0
		c0,0.144-0.636,1.372-0.816,1.661c-1.721,0.144-3.533-0.505-4.349-1.156c-0.544-0.433-0.635-0.939-0.996-1.517
		c-0.544-0.867-0.815-0.577-2.174-0.649v-1.518c0.452,0.218,0.543,0.362,0.995,0.578c0.544,0.145,0.816,0.145,1.45,0.145
		C52.459,48.239,53.184,48.239,53.545,47.372L53.545,47.372z M71.576,44.195c-0.814-0.217-1.993-0.144-2.81,0.072
		c-1.268,0.217-1.541,0.723-1.812,0.867c0.726,0,1.359-0.216,2.175,0.072c2.627,0.866,3.08,5.127-0.09,6.282
		c-4.169,1.444-6.796-3.538-4.078-6.137c1.993-1.951,6.161-2.239,6.886-1.733c0.454,0.072,0.544,0.145,0.997,0.216v-0.939
		l-9.152-0.072v-0.795h13.864v0.867h-2.357v7.438c0,1.082,1.179,0.938,1.451,1.299c-0.272,0.145-4.894,0.145-5.165,0
		c0.181-0.433,1.269-0.217,1.359-1.372c0-0.794,0-1.589,0-2.382C72.845,46.145,73.298,44.556,71.576,44.195L71.576,44.195z
		 M57.623,51.488l0.272-0.072c0.271-0.072,0.361-0.144,0.452-0.288c0.271-0.217,0.363-0.505,0.454-0.939l-0.091-7.293l-1.54-0.072
		v-0.795h6.341v0.867h-2.445c-0.091,0.505,0,4.188,0,4.983c0,1.156-0.362,2.816,0.544,3.394c0.544,0.289,0.815,0.144,0.997,0.361
		c-0.363,0.145-4.893,0.145-5.165,0C57.533,51.488,57.442,51.561,57.623,51.488L57.623,51.488z M56.988,41.812
		c-0.091,0.36-0.091,0.867,0,1.228l1.45,0.072c0.09,0.506,0.09,3.828,0.09,4.623c0,2.382,0.364,3.394-1.357,3.609
		c0-0.433,0.452-0.938,0.362-1.228c-0.091,0.072-0.907,0.579-1.178,0.65c-0.362,0.145-1.179,0.145-1.722,0.072
		c-2.445-0.144-2.175-1.444-2.084-1.588c0.09,0,5.526-0.579,5.165-4.261c-0.092-0.938-0.544-1.372-0.998-2.022l-0.272-0.289
		c-0.181-0.072-0.181-0.144-0.361-0.289c-0.181-0.072-0.543-0.29-0.816-0.434c-4.167-1.805-7.972,2.095-5.707,4.188
		c1.269,1.155,1.993,1.228,3.533,1.445c-0.271,0.577-1.722,0.577-2.536,0.433c-1.178-0.072-1.359-0.651-1.993-0.939v2.167
		c1.177,0.072,1.721-0.29,2.265,0.649c0.362,0.795,0.452,1.083,0.996,1.516c0.453,0.362,1.359,0.723,1.994,0.867
		c0.634,0.216,1.902,0.36,2.626,0.289l0.544-1.083c0.183,0.145,0.092,0,0.183,0.217c0,0,0,0.146,0,0.217h5.617v-0.506
		c-0.634-0.288-1.45-0.072-1.45-1.228v-6.933c0.091-0.289,0-0.216,0.453-0.216l10.873,0.072l-0.091,0.433
		c-0.182,0-4.169-1.298-7.521,1.445c-2.355,1.877-1.722,5.633,1.269,6.715c0.634,0.217,1.54,0.217,2.264,0.073
		c3.081-0.578,3.443-3.755,2.357-5.416c-0.636-1.011-1.359-1.518-3.081-1.518c0.634-0.721,3.805-0.866,4.53,0.074
		c0.362,0.433,0.182,3.754,0.182,4.405c0,1.3,0.181,1.732-1.359,2.021l0.181,0.507c0.453,0.072,5.075,0.072,5.526,0v-0.507
		c-0.814-0.216-1.449-0.144-1.449-1.155c-0.091-1.588-0.181-5.993,0-7.077c0.454-0.145,1.722,0,2.356-0.072v-1.228H56.988z"/>
	<path fill-rule="evenodd" clip-rule="evenodd" fill="#4F3131" d="M62.517,31.414l0.181,0.145c0,0.072,0.091,0.144,0.181,0.216
		c0.272,0.361,0.634,0.65,1.27,0.722c0.995,0.145,1.63-0.145,2.264-0.433c0.272-0.216,0.453-0.289,0.726-0.649
		c0.635-0.795,0.635-2.167,0.725-3.106c0.182-1.012,0.815-2.96-1.631-3.322c-2.719-0.506-4.439,2.889-3.986,5.416
		C62.335,30.763,62.517,31.124,62.517,31.414L62.517,31.414z"/>
	<path fill-rule="evenodd" clip-rule="evenodd" fill="#EDEAB5" d="M71.848,43.618c-0.182,0.216-0.091,0-0.091,0.216v0.361h-0.181
		c1.722,0.36,1.269,1.949,1.269,3.683c0,0.793,0,1.588,0,2.382c-0.091,1.155-1.179,0.939-1.359,1.372
		c0.271,0.145,4.893,0.145,5.165,0c-0.272-0.361-1.451-0.217-1.451-1.299v-7.438h2.357v-0.867H63.692v0.795l9.152,0.072v0.939
		C72.392,43.763,72.302,43.69,71.848,43.618L71.848,43.618z"/>
	<path fill-rule="evenodd" clip-rule="evenodd" fill="#EFE9B6" d="M66.23,48.96c-0.091-1.082-0.091-2.31,0.725-2.888
		c0.544-0.361,1.269-0.072,1.54,0.216c0.271,0.434,0.363,1.011,0.363,1.518C68.949,51.705,66.411,51.633,66.23,48.96L66.23,48.96z
		 M71.576,44.195h0.181v-0.361c0-0.216-0.091,0,0.091-0.216c-0.725-0.506-4.893-0.218-6.886,1.733
		c-2.718,2.6-0.091,7.582,4.078,6.137c3.17-1.154,2.717-5.416,0.09-6.282c-0.815-0.289-1.449-0.072-2.175-0.072
		c0.271-0.145,0.544-0.65,1.812-0.867C69.583,44.051,70.762,43.979,71.576,44.195L71.576,44.195z"/>
	<path fill-rule="evenodd" clip-rule="evenodd" fill="#EFE9B6" d="M57.171,42.823l1.54,0.072l0.091,7.293
		c-0.091,0.434-0.183,0.723-0.454,0.939c-0.091,0.144-0.181,0.216-0.452,0.288l-0.272,0.072c-0.181,0.072-0.09,0-0.181,0.145
		c0.272,0.145,4.802,0.145,5.165,0c-0.182-0.217-0.453-0.072-0.997-0.361c-0.906-0.577-0.544-2.238-0.544-3.394
		c0-0.795-0.091-4.478,0-4.983h2.445v-0.867h-6.341V42.823z"/>
	<path fill-rule="evenodd" clip-rule="evenodd" fill="#C9292A" d="M40.409,51.128c-0.091,0.288-2.267,0.938-3.716,0.216
		c-0.271-0.144-0.271-0.072-0.362-0.216c-1.722-0.867-3.353-4.766,0.907-6.861c1.269-0.577,2.717-0.939,4.258-0.867
		c0.906,0.072,1.269,0.362,2.084,0.434v-0.939h-9.151v-0.867c2.265-0.145,4.983,0,7.338,0c0.727,0,0.907-0.072,1.541,0.144
		c1.179,0.362,2.537-0.144,3.171-0.144c0.545,0,1.27,0,1.813,0v0.867h-2.355c0,2.239-0.091,5.199,0,7.365
		c0,0.434,0.091,0.723,0.362,0.867c0.271,0.216,0.906,0.288,1.087,0.505c-0.361,0.145-4.801,0.072-4.892,0.072l-0.182-0.072h-0.091
		c0.182-0.361,0.725-0.145,1.268-0.866c0.183-0.289,0.092-1.228,0.092-1.661c0-1.228,0-2.455,0-3.611
		c-0.092-2.022-4.711-1.732-5.89-0.361c1.269,0,1.631-0.29,2.719,0.289c0.634,0.361,1.087,0.939,1.268,1.661
		C42.221,48.6,41.858,50.55,40.409,51.128L40.409,51.128z M33.341,38.635c0.907-0.434,2.99-0.65,4.168-0.506
		c3.172,0.435,5.165,2.456,6.434,2.818c1.813,0.577,3.081-0.362,3.715-0.651c-0.362,1.156-1.541,1.877-3.353,1.877
		c-1.54,0-2.809-1.226-3.533-1.732c-4.983-3.394-6.523-0.938-7.521-0.505L33.341,38.635z M33.069,40.295
		c0.906-0.072,2.447-3.683,8.245,0.795l0.997,0.722c-1.088,0.072-7.702-0.072-7.974,0.072c-0.181,0.145-0.09-0.072-0.181,0.289
		c0,0.29-0.091,0.795,0.271,0.867c0.636,0.072,7.521-0.072,8.879,0.072v0.433c-0.634-0.072-1.177-0.36-2.174-0.36
		c-2.265,0-3.986,0.723-5.346,1.806c-3.262,2.527-0.724,7.871,3.624,6.788c2.99-0.794,3.353-3.611,2.265-5.416
		c-0.634-1.011-1.358-1.444-3.17-1.518c0.724-0.577,2.354-0.649,3.26-0.504c1.722,0.144,1.541,1.155,1.541,1.805
		c0,1.011,0,2.095,0,3.178c0,1.588,0.181,1.516-1.268,2.021c-0.273,0.723,0.271,0.507,2.446,0.507c0.996,0,2.083,0.072,3.171,0
		v-0.435c-0.362-0.216-1.45-0.072-1.541-1.228c0-1.154-0.09-6.499,0.091-7.149h2.356v-1.156c-0.544-0.144-1.269-0.072-1.813-0.072
		c0.091-0.145,0.726-0.433,1.179-1.444c0.362-0.649,0.181-0.433,0.091-0.577c-0.635,0.289-0.905,0.649-1.541,0.938
		c-0.543,0.218-1.54,0.29-2.264,0.145c-1.27-0.289-3.263-2.454-6.706-2.888c-1.269-0.144-3.714,0-4.439,0.579V40.295z"/>
	<path fill-rule="evenodd" clip-rule="evenodd" fill="#503030" d="M56.717,42.967c0.454,0.651,0.906,1.084,0.998,2.022
		c0.361,3.682-5.075,4.261-5.165,4.261c-0.091,0.144-0.361,1.444,2.084,1.588c0.543,0.072,1.359,0.072,1.722-0.072
		c0.271-0.072,1.087-0.578,1.178-0.65c0.09,0.29-0.362,0.795-0.362,1.228c1.722-0.216,1.357-1.228,1.357-3.609
		c0-0.795,0-4.116-0.09-4.623l-1.45-0.072c-0.091-0.361-0.091-0.867,0-1.228c-0.362,0.072-0.182,0-0.271,0.289c0,0,0,0.29,0,0.362
		C56.717,42.606,56.717,42.751,56.717,42.967L56.717,42.967z"/>
	<path fill-rule="evenodd" clip-rule="evenodd" fill="#FBEE22" d="M54.996,33.868c-0.092-0.289,0-0.361-0.453-0.361
		c0.271,0,0.181,0,0.361-0.144l-0.09-0.216c-0.091,0-0.091,0-0.091,0l-0.09-0.217c-0.091,0-0.182-0.072-0.182-0.072
		c0.271-0.29,0.452-0.434,0.362-0.723c-0.453,0.144-0.271,0.289-0.271,0.289c-0.091,0.216,0.091,0.072-0.271,0.216
		c0.09-0.145,0-0.072,0.09-0.361c-0.09,0-0.181-0.072-0.271,0.072l-0.091-0.216c-0.271,0.216-0.362,0.577-0.725,0.867
		c-0.905,0.722-2.446,1.156-3.806,0.793c-2.265-0.722-2.445-2.021-2.535-3.465c-0.273,0.072-1.632,1.372-1.904,1.661
		c0.363,1.083,2.175,2.456,3.896,2.816c1.812,0.433,3.986,0,5.526-0.649L54.996,33.868z"/>
	<path fill-rule="evenodd" clip-rule="evenodd" fill="#EFE9B6" d="M33.341,38.635l-0.091,1.3c0.998-0.433,2.538-2.889,7.521,0.505
		c0.725,0.506,1.993,1.732,3.533,1.732c1.812,0,2.99-0.721,3.353-1.877c-0.634,0.289-1.902,1.228-3.715,0.651
		c-1.269-0.362-3.262-2.383-6.434-2.818C36.331,37.984,34.248,38.201,33.341,38.635L33.341,38.635z"/>
	<path fill-rule="evenodd" clip-rule="evenodd" fill="#FBEE22" d="M27.724,25.059l-0.362-0.145c0.362-0.144,0.453,0.216,0.814-0.29
		c-0.271,0-0.18,0-0.452,0.072c0,0-0.09,0-0.09,0.074c-0.091,0-0.091,0-0.091,0c-0.543,0.072-0.453-0.074-0.725,0.289l-0.363-0.579
		c0.091,0,0.363-0.072,0.363-0.072l1.268-0.289l-0.452-0.216c-0.362-0.145-0.182,0-0.362-0.217c-1.179,0.145-7.431,1.588-8.155,1.95
		l0.453,1.3c0.635-0.072,1.45-0.289,2.085-0.433C22.65,26.214,27.543,25.131,27.724,25.059L27.724,25.059z"/>
	<path fill-rule="evenodd" clip-rule="evenodd" fill="#503030" d="M52.55,42.751c-1.54,0.577-0.906,4.477,1.54,3.466
		c0.725-0.289,1.087-1.444,0.725-2.382C54.634,43.256,53.545,42.39,52.55,42.751L52.55,42.751z"/>
	<path fill-rule="evenodd" clip-rule="evenodd" fill="#FBEE1B" d="M54.09,31.847l-0.091,0.289l0.091,0.216
		c0.091-0.144,0.182-0.072,0.271-0.072c-0.09,0.289,0,0.216-0.09,0.361c0.362-0.145,0.181,0,0.271-0.216
		c0,0-0.182-0.145,0.271-0.289c0.09,0.289-0.091,0.433-0.362,0.723c0,0,0.091,0.072,0.182,0.072l0.09,0.217c0,0,0,0,0.091,0
		l0.09,0.216c-0.181,0.144-0.09,0.144-0.361,0.144c0.453,0,0.361,0.072,0.453,0.361c0.362-0.072,0.906-0.577,1.178-0.794
		c0.271-0.361,0.543-0.723,0.633-1.155c0.273-1.083-0.271-1.951-0.904-2.383h-0.091c-0.362,0.072-0.091-0.072,0,0.289
		c-0.453-0.145-0.181,0.072-0.453-0.289c-0.273,0.361-0.362,0.216-0.454,0.361c-0.271,0.29-0.09-0.145,0,0.144
		c0,0.506,0.092-0.289,0,0.218l-0.543,0.072l0.182,0.361c0,0,0,0.144,0,0.216c0,0.289,0,0.361-0.182,0.651l-0.09,0.144
		C54.09,31.919,54.271,31.486,54.09,31.847L54.09,31.847z"/>
	<path fill-rule="evenodd" clip-rule="evenodd" fill="#FBEE1B" d="M49.288,37.624c0.815,1.805,3.986,0.867,3.352-0.867
		c-0.181-0.577-1.178-1.154-2.173-0.938C49.74,36.035,48.926,36.756,49.288,37.624L49.288,37.624z"/>
	<path fill-rule="evenodd" clip-rule="evenodd" fill="#FBEE22" d="M61.247,32.641c0.182,0.218,0.182,0.218,0.544,0.362
		c1.178,0.505,2.627,0.722,3.986,0.577c0.544,0,1.087-0.289,1.448-0.289c0,0.072-0.089,0.145,0.273,0.072l-0.09-0.145
		c0-0.506,0.181-0.723-0.272-0.939l-0.544-0.217c0,0,0,0,0,0.073c-0.182,0.216,0,0.072-0.091,0l-0.091-0.073
		c-0.634,0.289-1.269,0.578-2.264,0.433c-0.636-0.072-0.997-0.36-1.27-0.722c-0.09-0.072-0.181-0.144-0.181-0.216l-0.181-0.145
		l-0.182,0.36c-0.181-0.072,0.091,0.145-0.091-0.072v-0.144c0.091-0.362,0.091-0.145,0-0.435c-0.183,0.216-0.183,0.145-0.183,0.579
		c-0.09,0.36-0.09,0.289,0,0.577c-0.271-0.072-0.271-0.072-0.543,0.145c0,0,0,0,0,0.072c-0.09,0-0.09,0-0.09,0v0.072
		C61.338,32.641,61.791,32.496,61.247,32.641L61.247,32.641z"/>
	<path fill-rule="evenodd" clip-rule="evenodd" fill="#FBEE22" d="M26.002,27.659c0.636,0.361-0.271-0.216,0.182,0.361
		c0,0.072,0,0.072,0,0.072c0.271,0.361-0.182,0.145,0.271,0.289c0.272-0.289,0-0.072,0.272-0.36
		c0.362-0.289,0.182,0.144,0.362-0.361c0,0.072,0,0.072,0,0.072s0.091,0,0.091,0.072l0.271,0.145l-0.091,0.505h0.272
		c0.09,0.216,0,0.145,0.271,0.434l-0.453,0.072l0,0l0.182,0.433c0.362-0.289,0.906-1.3,2.264-1.805l-0.181-0.362
		c0-0.145,0-0.072,0.091-0.217c0.272,0.145,0.454,0.289,0.726,0.145c0.271-0.072,0.182,0,0.271-0.145
		c-0.09-0.072,0-0.144-0.452-0.072l-0.091,0.072c-0.273,0-0.182,0-0.182-0.072c1.358,0.072,0.635,0.072,0.905-0.217
		c-0.361,0.072-1.54,0.217-1.54-0.36l0.091-0.145l0.09-0.072l-0.181-0.217c-0.09,0.073-1.812,0.65-2.718,1.155
		C26.364,27.369,26.184,27.442,26.002,27.659L26.002,27.659z"/>
	<path fill-rule="evenodd" clip-rule="evenodd" fill="#FBEE22" d="M88.066,26.142l3.171,0.794l0.543-1.3
		c-0.271-0.145-2.174-0.65-2.626-0.722l-0.455,0.433c-0.181,0.144,0-0.217-0.09,0.144c0.182,0,0.271,0.145,0.362,0.216l0.454,0.29
		c-0.091,0-0.091,0.072-0.271,0.072c-0.273,0.072-0.183,0-0.183,0c-0.272-0.072-0.091-0.146-0.543-0.146
		C88.247,26.359,88.429,25.852,88.066,26.142L88.066,26.142z"/>
	<path fill-rule="evenodd" clip-rule="evenodd" fill="#EDEAB5" d="M36.331,51.128c0.091,0.144,0.091,0.072,0.362,0.216
		c1.449,0.723,3.625,0.072,3.716-0.216v-0.217c-0.272,0.361,0.09,0.072-0.272,0.144c-0.272,0-0.272-0.072-0.272-0.072l0.545-0.217
		c0-0.072,0-0.072,0.09-0.072l0.091-0.145c-0.453-0.144-0.271-0.072-0.361,0c-0.183,0-0.273,0.145-0.545,0.072
		c-0.362-0.072,0,0-0.182-0.072c0.362-0.29,0-0.072,0.635-0.144c-0.091-0.072-0.362-0.29-0.635-0.146
		c-0.181,0.146,0,0.217,0.091,0.578c-0.905-0.216-0.091-0.723-0.543-0.433c-0.091,0,0,0-0.091,0.072l-0.09,0.145
		c-0.182,0.072-0.182,0.144-0.362,0.144c-1.179,0.289-1.359-0.939-1.541-1.228l-0.272-0.216c0.092,0.36,0.183,0.505,0.363,0.721
		c0.182,0.29,0.091,0.217,0.091,0.362l-0.091,0.072c-0.091,0.289,0.182,0-0.091,0.072v-0.072c0,0-0.09,0-0.09-0.072l-0.183-0.435
		v0.506l0,0v0.072v0.072c-0.091,0.361,0.092,0.072-0.182,0.216l-0.09,0.145C36.331,51.055,36.331,50.839,36.331,51.128
		L36.331,51.128z"/>
	<path fill-rule="evenodd" clip-rule="evenodd" fill="#52312F" d="M37.328,47.012c-0.543,0.578-0.181,3.395,0.725,3.611
		c1.359,0.289,1.631-3.395,0.997-3.972c-0.091-0.434-0.452-0.579-0.997-0.506C37.69,46.289,37.419,46.651,37.328,47.012
		L37.328,47.012z"/>
	<path fill-rule="evenodd" clip-rule="evenodd" fill="#C9292A" d="M37.328,47.012c0.091-0.361,0.362-0.723,0.725-0.867
		c0.545-0.072,0.906,0.072,0.997,0.506c0.634,0.577,0.362,4.26-0.997,3.972C37.147,50.406,36.785,47.59,37.328,47.012L37.328,47.012
		z M36.966,49.539c0.182,0.289,0.362,1.516,1.541,1.228c0.181,0,0.181-0.072,0.362-0.144l0.09-0.145
		c0.091-0.072,0-0.072,0.091-0.072c0.362-0.795,0.543-1.372,0.543-2.312c0-0.795-0.091-1.732-0.724-2.022
		c-1.088-0.577-1.631,0.29-1.813,0.939C36.693,47.878,36.876,48.672,36.966,49.539L36.966,49.539z"/>
	<path fill-rule="evenodd" clip-rule="evenodd" fill="#D72728" d="M68.224,49.972c0,0.217,0,0.217-0.181,0.362
		c-0.091,0.144-0.271,0.216-0.453,0.289c-0.545,0-0.815-0.289-0.906-0.723c-0.182-0.217-0.272-0.722-0.272-1.011
		c0-0.433,0-0.866,0-1.299c0.182-1.95,2.174-2.167,2.266,0.145C68.677,48.312,68.585,49.611,68.224,49.972L68.224,49.972z
		 M66.23,48.96c0.181,2.672,2.719,2.745,2.628-1.154c0-0.506-0.092-1.083-0.363-1.518c-0.271-0.289-0.996-0.577-1.54-0.216
		C66.14,46.651,66.14,47.878,66.23,48.96L66.23,48.96z"/>
	<path fill-rule="evenodd" clip-rule="evenodd" fill="#D72728" d="M52.55,42.751c0.995-0.361,2.084,0.505,2.265,1.083
		c0.362,0.938,0,2.094-0.725,2.382C51.644,47.228,51.01,43.328,52.55,42.751L52.55,42.751z M52.55,42.535
		c-0.543,0.216-0.816,0.505-0.906,1.083c-0.544,1.877,0.634,3.465,2.446,2.816c1.269-0.435,1.631-2.745,0.091-3.611
		C53.818,42.606,53.093,42.39,52.55,42.535L52.55,42.535z"/>
	<path fill-rule="evenodd" clip-rule="evenodd" fill="#FBEE22" d="M36.876,25.852v0.146l-1.088-0.218
		c-0.181,0.218-0.181-0.072-0.091,0.29l-0.452,0.072c0.181,0.217-0.091,0.217,0.543,0.217c-0.091,0-0.091,0-0.091,0
		c-0.362,0.072-0.181,0-0.452,0l-0.181,0.072c0.181,0.217,0.09,0.145,0.452,0.217c0.271,0.072,0.181-0.289,0.362,0.216
		c-0.453-0.072-0.362-0.145-0.814,0c-0.455,0.144-0.455,0.072-0.636,0.289l1.359,0.506c0.181,0,0.181,0,0.361-0.072
		c0.182,0,0,0.072,0.182-0.072l-0.271-0.072c-0.271-0.074-0.091,0.072-0.543-0.074l0,0l-0.635-0.144c0.183,0,0,0.072,0.183-0.217
		c0.181,0,0.452,0,0.633,0.072c0.362,0.145,0,0.072,0.452,0.289c0.272-0.144,0.272-0.144,0.362-0.361l0.364-0.36
		c-0.183-0.072-0.091-0.072-0.545-0.072c0.271-0.289,0.635-0.072,0.726-0.433C37.057,25.852,37.057,25.998,36.876,25.852
		L36.876,25.852z"/>
</g>
</svg>
